<svg width="1459" height="1459" viewBox="0 0 1459 1459" fill="none" xmlns="http://www.w3.org/2000/svg">
<rect x="12" y="12" width="1435" height="1435" rx="174" fill="url(#paint0_linear_47_18)" stroke="url(#paint1_linear_47_18)" stroke-width="24"/>
<path d="M650.901 417.632L595.66 438.314C591.264 439.928 588.333 444.181 588.333 448.875C588.333 453.569 591.264 457.822 595.66 459.436L650.901 480.118L671.561 535.416C673.173 539.816 677.422 542.75 682.111 542.75C686.8 542.75 691.049 539.816 692.661 535.416L713.321 480.118L768.562 459.436C772.958 457.822 775.889 453.569 775.889 448.875C775.889 444.181 772.958 439.928 768.562 438.314L713.321 417.632L692.661 362.334C691.049 357.934 686.8 355 682.111 355C677.422 355 673.173 357.934 671.561 362.334L650.901 417.632ZM374.549 934.972C347.149 962.401 347.149 1006.99 374.549 1034.57L425.248 1085.32C452.649 1112.75 497.193 1112.75 524.74 1085.32L1083.45 525.882C1110.85 498.453 1110.85 453.862 1083.45 426.286L1032.75 375.682C1005.35 348.253 960.807 348.253 933.26 375.682L374.549 934.972ZM1017.07 476.157L863.219 630.171L829.078 595.995L982.933 441.981L1017.07 476.157ZM317.99 526.909C311.396 529.402 307 535.709 307 542.75C307 549.791 311.396 556.098 317.99 558.591L400.778 589.688L431.842 672.562C434.333 679.162 440.633 683.563 447.667 683.563C454.7 683.563 461.001 679.162 463.492 672.562L494.556 589.688L577.344 558.591C583.937 556.098 588.333 549.791 588.333 542.75C588.333 535.709 583.937 529.402 577.344 526.909L494.556 495.813L463.492 412.938C461.001 406.338 454.7 401.938 447.667 401.938C440.633 401.938 434.333 406.338 431.842 412.938L400.778 495.813L317.99 526.909ZM833.767 902.409C827.174 904.902 822.778 911.209 822.778 918.25C822.778 925.291 827.174 931.598 833.767 934.091L916.556 965.188L947.619 1048.06C950.11 1054.66 956.411 1059.06 963.444 1059.06C970.478 1059.06 976.778 1054.66 979.269 1048.06L1010.33 965.188L1093.12 934.091C1099.72 931.598 1104.11 925.291 1104.11 918.25C1104.11 911.209 1099.72 904.902 1093.12 902.409L1010.33 871.313L979.269 788.439C976.778 781.838 970.478 777.438 963.444 777.438C956.411 777.438 950.11 781.838 947.619 788.439L916.556 871.313L833.767 902.409Z" fill="url(#paint2_linear_47_18)"/>
<defs>
<linearGradient id="paint0_linear_47_18" x1="24" y1="24" x2="1435" y2="1435" gradientUnits="userSpaceOnUse">
<stop stop-color="#212121"/>
<stop offset="1"/>
</linearGradient>
<linearGradient id="paint1_linear_47_18" x1="24" y1="36.0187" x2="777.575" y2="753.938" gradientUnits="userSpaceOnUse">
<stop stop-color="#858585"/>
<stop offset="0.0001" stop-color="#858585"/>
<stop offset="1" stop-color="#333333"/>
</linearGradient>
<linearGradient id="paint2_linear_47_18" x1="307" y1="355" x2="1104" y2="1106" gradientUnits="userSpaceOnUse">
<stop stop-color="#9A9A9A"/>
<stop offset="1" stop-color="white"/>
</linearGradient>
</defs>
</svg>
