<svg width="844" height="751" viewBox="0 0 844 751" fill="none" xmlns="http://www.w3.org/2000/svg">
<path d="M343.901 62.6322L288.66 83.3141C284.264 84.9275 281.333 89.1813 281.333 93.875C281.333 98.5688 284.264 102.822 288.66 104.436L343.901 125.118L364.561 180.416C366.173 184.816 370.422 187.75 375.111 187.75C379.8 187.75 384.049 184.816 385.661 180.416L406.321 125.118L461.562 104.436C465.958 102.822 468.889 98.5688 468.889 93.875C468.889 89.1813 465.958 84.9275 461.562 83.3141L406.321 62.6322L385.661 7.33398C384.049 2.93359 379.8 0 375.111 0C370.422 0 366.173 2.93359 364.561 7.33398L343.901 62.6322ZM67.5493 579.971C40.1486 607.401 40.1486 651.991 67.5493 679.567L118.248 730.318C145.649 757.747 190.193 757.747 217.74 730.318L776.451 170.882C803.851 143.453 803.851 98.8621 776.451 71.2863L725.752 20.6818C698.351 -6.74727 653.807 -6.74727 626.26 20.6818L67.5493 579.971ZM710.074 121.157L556.219 275.171L522.078 240.995L675.933 86.9811L710.074 121.157ZM10.9896 171.909C4.39583 174.402 0 180.709 0 187.75C0 194.791 4.39583 201.098 10.9896 203.591L93.7778 234.688L124.842 317.562C127.333 324.162 133.633 328.563 140.667 328.563C147.7 328.563 154.001 324.162 156.492 317.562L187.556 234.688L270.344 203.591C276.937 201.098 281.333 194.791 281.333 187.75C281.333 180.709 276.937 174.402 270.344 171.909L187.556 140.813L156.492 57.9385C154.001 51.3379 147.7 46.9375 140.667 46.9375C133.633 46.9375 127.333 51.3379 124.842 57.9385L93.7778 140.813L10.9896 171.909ZM526.767 547.409C520.174 549.902 515.778 556.209 515.778 563.25C515.778 570.291 520.174 576.598 526.767 579.091L609.556 610.188L640.619 693.062C643.11 699.662 649.411 704.063 656.444 704.063C663.478 704.063 669.778 699.662 672.269 693.062L703.333 610.188L786.121 579.091C792.715 576.598 797.111 570.291 797.111 563.25C797.111 556.209 792.715 549.902 786.121 547.409L703.333 516.313L672.269 433.439C669.778 426.838 663.478 422.438 656.444 422.438C649.411 422.438 643.11 426.838 640.619 433.439L609.556 516.313L526.767 547.409Z" fill="url(#paint0_linear_46_15)"/>
<defs>
<linearGradient id="paint0_linear_46_15" x1="0" y1="0" x2="797" y2="751" gradientUnits="userSpaceOnUse">
<stop stop-color="#525252"/>
<stop offset="1" stop-color="#060606"/>
</linearGradient>
</defs>
</svg>
